<svg width="289" height="125" viewBox="0 0 289 125" fill="none" xmlns="http://www.w3.org/2000/svg">
<path d="M65.9297 92.4082C65.5312 93.1387 64.834 94.4668 63.8379 96.3926C62.9082 98.3184 61.6133 100.51 59.9531 102.967C58.3594 105.357 56.4336 107.848 54.1758 110.438C51.918 113.027 49.3281 115.418 46.4062 117.609C43.4844 119.734 40.1973 121.494 36.5449 122.889C32.959 124.283 29.041 124.98 24.791 124.98C21.0059 124.98 17.6523 124.283 14.7305 122.889C11.8086 121.561 9.31836 119.668 7.25977 117.211C5.20117 114.688 3.64062 111.732 2.57812 108.346C1.51562 104.959 0.984375 101.207 0.984375 97.0898C0.984375 93.1055 1.54883 89.3867 2.67773 85.9336C3.80664 82.4141 5.33398 79.3594 7.25977 76.7695C9.25195 74.1797 11.543 72.1543 14.1328 70.6934C16.7227 69.166 19.4785 68.4023 22.4004 68.4023C24.5918 68.4023 26.584 68.8008 28.377 69.5977C30.1699 70.3281 31.6641 71.3242 32.8594 72.5859C34.1211 73.8477 35.084 75.2422 35.748 76.7695C36.4785 78.2969 36.8438 79.8242 36.8438 81.3516C36.8438 82.8125 36.6445 84.1738 36.2461 85.4355C35.9141 86.6973 35.4492 87.8262 34.8516 88.8223C34.3203 89.752 33.6895 90.5156 32.959 91.1133C32.2285 91.6445 31.498 91.9102 30.7676 91.9102C29.6387 91.9102 28.709 91.5449 27.9785 90.8145C27.3145 90.084 26.9824 89.1875 26.9824 88.125C26.9824 87.5938 27.082 87.1289 27.2812 86.7305C27.5469 86.332 27.8125 85.9336 28.0781 85.5352C28.4102 85.0703 28.6758 84.5391 28.875 83.9414C29.1406 83.2773 29.2734 82.4473 29.2734 81.4512C29.2734 80.0566 28.6094 78.7949 27.2812 77.666C26.0195 76.5371 24.3926 75.9727 22.4004 75.9727C20.541 75.9727 18.748 76.5371 17.0215 77.666C15.3613 78.7949 13.9004 80.3223 12.6387 82.248C11.377 84.1074 10.3477 86.332 9.55078 88.9219C8.82031 91.4453 8.45508 94.1348 8.45508 96.9902C8.45508 99.7129 8.78711 102.303 9.45117 104.76C10.1152 107.217 11.1113 109.408 12.4395 111.334C13.7676 113.193 15.4277 114.688 17.4199 115.816C19.4785 116.945 21.9023 117.51 24.6914 117.51C28.2773 117.51 31.5977 116.879 34.6523 115.617C37.707 114.289 40.4961 112.629 43.0195 110.637C45.543 108.645 47.7676 106.486 49.6934 104.162C51.6191 101.771 53.2461 99.5469 54.5742 97.4883C55.9688 95.3633 57.0312 93.5371 57.7617 92.0098C58.5586 90.416 59.0234 89.4199 59.1562 89.0215C59.4219 88.3574 59.8535 87.8594 60.4512 87.5273C61.1152 87.1289 61.8125 86.9297 62.543 86.9297C63.6719 86.9297 64.5684 87.3281 65.2324 88.125C65.9629 88.9219 66.3281 89.8184 66.3281 90.8145C66.3281 91.2129 66.1953 91.7441 65.9297 92.4082ZM75.3926 41.8066C75.3926 44.3301 74.4961 46.4883 72.7031 48.2812C70.9766 50.0078 68.8516 50.8711 66.3281 50.8711C63.8047 50.8711 61.6465 50.0078 59.8535 48.2812C58.127 46.4883 57.2637 44.3301 57.2637 41.8066C57.2637 40.5449 57.4961 39.3828 57.9609 38.3203C58.4258 37.1914 59.0566 36.2285 59.8535 35.4316C60.7168 34.5684 61.6797 33.9043 62.7422 33.4395C63.8711 32.9746 65.0664 32.7422 66.3281 32.7422C67.5898 32.7422 68.752 32.9746 69.8145 33.4395C70.9434 33.9043 71.9062 34.5684 72.7031 35.4316C73.5664 36.2285 74.2305 37.1914 74.6953 38.3203C75.1602 39.3828 75.3926 40.5449 75.3926 41.8066ZM59.2559 100.178C59.2559 90.6152 59.8535 81.0859 61.0488 71.5898C61.1816 70.6602 61.5801 69.8633 62.2441 69.1992C62.9746 68.4688 63.9043 68.1035 65.0332 68.1035C66.0293 68.1035 66.8594 68.502 67.5234 69.2988C68.1875 70.0293 68.5195 70.8926 68.5195 71.8887C68.5195 72.2871 68.4199 73.4824 68.2207 75.4746C68.0879 77.4668 67.8887 79.8574 67.623 82.6465C67.4238 85.3691 67.2246 88.291 67.0254 91.4121C66.8926 94.4668 66.8262 97.2891 66.8262 99.8789C66.8262 103.398 67.1582 106.254 67.8223 108.445C68.5527 110.57 69.4492 112.23 70.5117 113.426C71.6406 114.621 72.8027 115.418 73.998 115.816C75.2598 116.215 76.4551 116.414 77.584 116.414C79.4434 116.414 81.3691 115.75 83.3613 114.422C85.3535 113.094 87.3789 111.234 89.4375 108.844C91.5625 106.453 93.6875 103.598 95.8125 100.277C97.9375 96.8906 100.029 93.1387 102.088 89.0215C102.42 88.3574 102.885 87.8594 103.482 87.5273C104.08 87.1289 104.744 86.9297 105.475 86.9297C106.537 86.9297 107.4 87.3281 108.064 88.125C108.795 88.9219 109.16 89.7852 109.16 90.7148C109.16 91.3789 109.027 91.9434 108.762 92.4082C107.965 93.9355 106.969 95.7949 105.773 97.9863C104.578 100.178 103.217 102.436 101.689 104.76C100.162 107.084 98.4688 109.408 96.6094 111.732C94.8164 113.99 92.8906 116.049 90.832 117.908C88.7734 119.701 86.6152 121.162 84.3574 122.291C82.0996 123.42 79.8086 123.984 77.4844 123.984C74.4961 123.984 71.873 123.354 69.6152 122.092C67.3574 120.83 65.4316 119.137 63.8379 117.012C62.3105 114.887 61.1484 112.396 60.3516 109.541C59.6211 106.619 59.2559 103.498 59.2559 100.178ZM69.8145 41.8066C69.8145 40.877 69.4492 40.0801 68.7188 39.416C68.0547 38.6855 67.2578 38.3203 66.3281 38.3203C65.3984 38.3203 64.6016 38.6855 63.9375 39.416C63.2734 40.0801 62.9414 40.877 62.9414 41.8066C62.9414 42.7363 63.2734 43.5332 63.9375 44.1973C64.6016 44.8613 65.3984 45.1934 66.3281 45.1934C67.2578 45.1934 68.0547 44.8613 68.7188 44.1973C69.4492 43.5332 69.8145 42.7363 69.8145 41.8066ZM182.672 20.291C182.672 21.3535 182.307 22.2168 181.576 22.8809C180.846 23.4785 179.949 23.7773 178.887 23.7773H128.385V24.873C128.385 28.9238 128.086 33.2402 127.488 37.8223C126.891 42.4043 126.061 46.9863 124.998 51.5684C124.002 56.084 122.84 60.5 121.512 64.8164C120.25 69.1328 118.922 73.1172 117.527 76.7695C116.199 80.4219 114.871 83.6094 113.543 86.332C112.215 88.9883 111.02 90.9805 109.957 92.3086C110.82 95.3633 111.85 98.2188 113.045 100.875C114.24 103.465 115.568 105.756 117.029 107.748C118.557 109.674 120.184 111.201 121.91 112.33C123.637 113.459 125.496 114.023 127.488 114.023C129.812 114.023 132.104 113.061 134.361 111.135C136.686 109.143 138.811 106.818 140.736 104.162C142.729 101.439 144.455 98.7168 145.916 95.9941C147.443 93.2051 148.539 90.9805 149.203 89.3203C149.867 87.7266 151.029 86.9297 152.689 86.9297C153.818 86.9297 154.715 87.3281 155.379 88.125C156.109 88.9219 156.475 89.7852 156.475 90.7148C156.475 91.1797 156.375 91.6445 156.176 92.1094C155.977 92.5742 155.479 93.6367 154.682 95.2969C153.951 96.957 152.955 98.8828 151.693 101.074C150.498 103.266 149.07 105.59 147.41 108.047C145.816 110.438 143.99 112.629 141.932 114.621C139.939 116.613 137.781 118.273 135.457 119.602C133.133 120.93 130.676 121.594 128.086 121.594C123.504 121.594 119.387 120.1 115.734 117.111C112.082 114.123 108.961 109.939 106.371 104.561C103.848 99.1816 101.922 92.8066 100.594 85.4355C99.2656 78.0645 98.6016 69.9961 98.6016 61.2305C98.6016 59.0391 98.6348 56.4824 98.7012 53.5605C98.7676 50.5723 98.9004 47.4512 99.0996 44.1973C99.2988 40.877 99.5977 37.4902 99.9961 34.0371C100.395 30.5176 100.926 27.0977 101.59 23.7773H65.8301C64.7676 23.7773 63.8711 23.4785 63.1406 22.8809C62.4102 22.2168 62.0449 21.3535 62.0449 20.291C62.0449 19.2285 62.4102 18.3984 63.1406 17.8008C63.8711 17.1367 64.7676 16.8047 65.8301 16.8047H103.283C103.947 14.4141 104.711 12.2227 105.574 10.2305C106.504 8.23828 107.533 6.51172 108.662 5.05078C109.857 3.58984 111.152 2.46094 112.547 1.66406C114.008 0.800781 115.602 0.369141 117.328 0.369141C118.988 0.369141 120.416 0.800781 121.611 1.66406C122.873 2.46094 123.936 3.58984 124.799 5.05078C125.662 6.51172 126.326 8.23828 126.791 10.2305C127.322 12.2227 127.721 14.4141 127.986 16.8047H178.887C179.949 16.8047 180.846 17.1367 181.576 17.8008C182.307 18.3984 182.672 19.2285 182.672 20.291ZM107.666 82.3477C109.658 77.9648 111.451 73.25 113.045 68.2031C114.705 63.0898 116.1 57.9434 117.229 52.7637C118.424 47.584 119.32 42.5039 119.918 37.5234C120.582 32.543 120.914 27.9609 120.914 23.7773H109.16C108.23 27.8945 107.467 33.0078 106.869 39.1172C106.338 45.1602 106.072 52.5312 106.072 61.2305C106.072 66.0781 106.205 70.1621 106.471 73.4824C106.736 76.7363 107.135 79.6914 107.666 82.3477ZM116.93 7.83984C116.332 7.83984 115.469 8.50391 114.34 9.83203C113.211 11.0938 112.082 13.418 110.953 16.8047H120.516C120.184 14.0156 119.686 11.8242 119.021 10.2305C118.424 8.63672 117.727 7.83984 116.93 7.83984ZM109.26 89.5195V89.6191V89.5195ZM160.061 79.0605C159.795 80.8535 159.463 82.5469 159.064 84.1406C158.666 85.668 158.268 87.0293 157.869 88.2246C157.537 89.3535 157.238 90.2832 156.973 91.0137C156.707 91.7441 156.541 92.1426 156.475 92.209C155.811 93.7363 154.648 94.5 152.988 94.5C152.059 94.5 151.195 94.168 150.398 93.5039C149.602 92.7734 149.203 91.877 149.203 90.8145C149.203 90.416 149.27 90.1172 149.402 89.918C149.535 89.7188 149.734 89.3203 150 88.7227C150.266 88.125 150.598 87.1289 150.996 85.7344C151.395 84.3398 151.893 82.1816 152.49 79.2598C151.361 79.2598 150.199 79.2266 149.004 79.1602C147.809 79.0938 146.713 78.8613 145.717 78.4629C144.654 78.0645 143.791 77.4336 143.127 76.5703C142.463 75.707 142.131 74.5117 142.131 72.9844C142.131 71.8555 142.463 70.3281 143.127 68.4023C143.725 66.4766 144.555 64.584 145.617 62.7246C146.68 60.8652 147.875 59.2715 149.203 57.9434C150.531 56.5488 151.859 55.8516 153.188 55.8516C154.715 55.8516 155.943 56.416 156.873 57.5449C157.869 58.6738 158.633 60.0684 159.164 61.7285C159.695 63.3223 160.061 65.0156 160.26 66.8086C160.525 68.6016 160.658 70.1621 160.658 71.4902C161.787 71.4902 162.883 71.4902 163.945 71.4902C165.074 71.4238 166.137 71.3906 167.133 71.3906C170.918 71.3906 173.807 72.2207 175.799 73.8809C177.791 75.541 178.787 78.2637 178.787 82.0488C178.787 83.5762 178.688 85.1699 178.488 86.8301C178.289 88.4902 178.057 90.2168 177.791 92.0098C177.525 93.7363 177.293 95.4629 177.094 97.1895C176.895 98.916 176.795 100.609 176.795 102.27C176.795 104.66 177.127 106.652 177.791 108.246C178.455 109.773 179.285 111.002 180.281 111.932C181.277 112.861 182.34 113.525 183.469 113.924C184.598 114.256 185.627 114.422 186.557 114.422C189.412 114.422 192.102 113.492 194.625 111.633C197.148 109.773 199.473 107.549 201.598 104.959C203.723 102.303 205.615 99.5137 207.275 96.5918C209.002 93.6699 210.43 91.1133 211.559 88.9219C211.891 88.3242 212.355 87.8594 212.953 87.5273C213.551 87.1953 214.182 87.0293 214.846 87.0293C216.041 87.0293 216.971 87.4277 217.635 88.2246C218.299 88.9551 218.631 89.7852 218.631 90.7148C218.631 91.3789 218.498 91.9766 218.232 92.5078C216.705 95.2305 214.912 98.3184 212.854 101.771C210.861 105.158 208.57 108.346 205.98 111.334C203.391 114.322 200.469 116.846 197.215 118.904C194.027 120.963 190.508 121.992 186.656 121.992C184.266 121.992 182.008 121.527 179.883 120.598C177.758 119.734 175.898 118.473 174.305 116.812C172.777 115.086 171.549 112.994 170.619 110.537C169.689 108.014 169.225 105.191 169.225 102.07C169.225 98.75 169.557 95.4629 170.221 92.209C170.885 88.8887 171.217 85.7344 171.217 82.7461C171.217 81.4844 170.918 80.5547 170.32 79.957C169.789 79.293 168.561 78.9609 166.635 78.9609C165.705 78.9609 164.676 78.9609 163.547 78.9609C162.484 78.9609 161.322 78.9941 160.061 79.0605ZM153.387 71.6895C153.387 71.2246 153.354 70.627 153.287 69.8965C153.287 69.0996 153.221 68.3359 153.088 67.6055C153.021 66.875 152.889 66.2441 152.689 65.7129C152.557 65.1816 152.391 64.916 152.191 64.916C151.992 64.916 151.727 65.1816 151.395 65.7129C151.129 66.1777 150.83 66.7754 150.498 67.5059C150.166 68.1699 149.867 68.9004 149.602 69.6973C149.336 70.4941 149.137 71.1582 149.004 71.6895H153.387ZM288.557 92.209C288.291 92.7402 287.727 93.8691 286.863 95.5957C286.066 97.2559 285.004 99.1816 283.676 101.373C282.414 103.564 280.92 105.855 279.193 108.246C277.467 110.637 275.541 112.828 273.416 114.82C271.291 116.812 269 118.473 266.543 119.801C264.086 121.062 261.496 121.693 258.773 121.693C254.922 121.693 251.668 120.465 249.012 118.008C246.422 115.551 244.529 112.463 243.334 108.744C241.076 112.529 238.387 115.551 235.266 117.809C232.145 120 229.023 121.096 225.902 121.096C223.445 121.096 221.221 120.664 219.229 119.801C217.236 118.871 215.543 117.609 214.148 116.016C212.754 114.355 211.658 112.43 210.861 110.238C210.131 108.047 209.766 105.656 209.766 103.066C209.766 97.8867 210.629 93.3379 212.355 89.4199C214.148 85.4355 216.406 82.1152 219.129 79.459C221.852 76.8027 224.84 74.8105 228.094 73.4824C231.414 72.1543 234.602 71.4902 237.656 71.4902C239.715 71.4902 241.607 71.7891 243.334 72.3867C245.061 72.918 246.521 73.5156 247.717 74.1797C248.979 74.8438 249.941 75.4746 250.605 76.0723C251.27 76.6035 251.635 76.9023 251.701 76.9688C252.432 77.832 252.797 78.7285 252.797 79.6582C252.797 80.6543 252.432 81.5508 251.701 82.3477C250.971 83.0781 250.107 83.4434 249.111 83.4434C248.049 83.4434 247.152 83.0781 246.422 82.3477C246.289 82.2148 245.99 81.9824 245.525 81.6504C245.061 81.252 244.43 80.8535 243.633 80.4551C242.836 80.0566 241.873 79.7246 240.744 79.459C239.682 79.127 238.453 78.9609 237.059 78.9609C235 78.9609 232.809 79.4258 230.484 80.3555C228.16 81.2852 226.035 82.7461 224.109 84.7383C222.184 86.6641 220.557 89.1211 219.229 92.1094C217.967 95.0312 217.336 98.5176 217.336 102.568C217.336 103.83 217.469 105.125 217.734 106.453C218 107.715 218.465 108.877 219.129 109.939C219.793 111.002 220.689 111.865 221.818 112.529C222.947 113.193 224.342 113.525 226.002 113.525C227.197 113.525 228.559 113.127 230.086 112.33C231.68 111.533 233.174 110.305 234.568 108.645C236.029 106.984 237.324 104.893 238.453 102.369C239.648 99.8457 240.479 96.8574 240.943 93.4043C241.076 92.4746 241.508 91.7109 242.238 91.1133C242.969 90.4492 243.832 90.1172 244.828 90.1172C245.758 90.1172 246.555 90.4824 247.219 91.2129C247.949 91.9434 248.348 92.7734 248.414 93.7031C248.48 94.9648 248.613 96.7578 248.812 99.082C249.012 101.34 249.443 103.598 250.107 105.855C250.838 108.113 251.9 110.072 253.295 111.732C254.689 113.393 256.615 114.223 259.072 114.223C260.666 114.223 262.227 113.791 263.754 112.928C265.348 112.064 266.875 110.936 268.336 109.541C269.863 108.08 271.291 106.453 272.619 104.66C274.014 102.801 275.275 100.941 276.404 99.082C277.533 97.2227 278.529 95.4297 279.393 93.7031C280.256 91.9766 280.986 90.4824 281.584 89.2207C281.916 88.4902 282.381 87.9258 282.979 87.5273C283.643 87.1289 284.34 86.9297 285.07 86.9297C286.199 86.9297 287.096 87.3613 287.76 88.2246C288.49 89.0215 288.855 89.8848 288.855 90.8145C288.855 91.2793 288.756 91.7441 288.557 92.209Z" fill="white"/>
</svg>
