<svg width="361" height="199" viewBox="0 0 361 199" fill="none" xmlns="http://www.w3.org/2000/svg">
<path d="M143.596 92.8047C143.596 92.8047 145.376 82.3007 148.937 61.2928C146.217 61.1945 143.296 61.1271 140.175 61.0905C139.378 61.0812 138.583 61.0055 137.79 60.8634C133.894 60.0209 132.004 57.4754 132.119 53.227C132.152 52.0321 132.481 50.9403 133.105 49.9516C134.696 47.6461 137.184 46.5132 140.571 46.5529C140.637 46.5537 140.936 46.5572 141.467 46.5634C145.118 46.6726 148.403 46.7443 151.325 46.7785L156.545 16.062C156.86 14.2728 157.199 12.7827 157.564 11.5917C158.889 6.82624 161.411 4.46529 165.13 4.50885C165.993 4.51896 166.82 4.62826 167.611 4.83674C170.445 5.66677 171.796 8.50472 171.664 13.3506C171.608 15.4084 169.94 26.6442 166.661 47.0578L177.518 47.185C179.112 47.2037 180.531 47.5191 181.776 48.1313C184.267 49.3558 185.473 51.4284 185.393 54.3492C185.379 54.8802 185.296 55.4769 185.145 56.1391C184.113 59.912 181.372 61.7724 176.923 61.7202L164.273 61.572C157.963 100.609 154.734 122.85 154.586 128.293C154.501 131.413 155.052 134.341 156.24 137.078C158.059 141.017 160.495 143.004 163.55 143.04C166.615 142.677 169.648 141.086 172.647 138.266C179.875 131.378 186.102 118.569 191.328 99.8382C189.153 99.2151 187.151 98.3616 185.32 97.2777C178.521 93.2803 175.237 87.0664 175.466 78.6359C175.544 75.7815 176.347 73.1016 177.877 70.5962C180.936 65.5854 185.62 63.117 191.928 63.1909C195.248 63.2298 198.311 64.1621 201.118 65.9879C205.819 68.9647 208.098 73.0752 207.955 78.3193C207.898 80.4435 207.658 83.1632 207.235 86.4784C208.985 85.6357 211.416 84.1701 214.529 82.0817C218.181 79.6676 220.837 78.4702 222.497 78.4897C224.489 78.513 226.334 79.0659 228.032 80.1482C229.923 81.432 230.852 82.6713 230.82 83.8662C230.804 84.4637 230.576 85.5234 230.136 87.0455C226.298 98.6875 224.264 108.757 224.033 117.254C223.969 119.577 224.038 121.935 224.238 124.328C225.062 135.56 228.163 141.207 233.541 141.27C235.603 141.161 238.996 139.74 243.721 137.007C247.845 134.333 250.903 133.007 252.895 133.031C253.825 133.041 254.78 133.351 255.76 133.961C257.518 135.243 258.372 136.813 258.321 138.672C258.023 142.321 255.33 146.074 250.243 149.932C244.216 154.178 237.849 156.261 231.143 156.183C230.412 156.174 229.683 156.132 228.954 156.057C221.472 155.173 215.979 150.792 212.474 142.916C210.346 138.11 209.419 130.695 209.692 120.671C209.912 112.573 210.816 105.014 212.402 97.9934C210.113 99.0955 207.534 99.8953 204.664 100.393C203.086 107.147 201.288 113.401 199.271 119.155C190.134 144.945 177.298 157.743 160.764 157.549C154.125 157.405 148.789 154.554 144.756 148.995C140.664 143.17 138.734 135.976 138.967 127.413C139.168 120.044 140.711 108.508 143.596 92.8047ZM187.499 79.4741C187.464 83.1923 189.716 85.8748 194.254 87.5216C195.03 83.4137 195.435 80.7623 195.467 79.5675C195.478 79.1692 195.423 78.7369 195.303 78.2707C194.887 76.4729 193.683 75.5624 191.691 75.5391C191.359 75.5352 190.959 75.5969 190.49 75.7242C188.55 76.2327 187.553 77.4827 187.499 79.4741Z" fill="white"/>
<path d="M82.9577 126.125C82.9584 123.867 83.0919 121.476 83.3583 118.953C84.7563 107.598 88.3453 97.5043 94.1253 88.6731C101.234 77.8498 109.736 72.4388 119.63 72.4401C120.958 72.4402 122.386 72.54 123.913 72.7395C130.952 73.7365 134.604 76.2936 134.868 80.4108C134.801 83.5983 131.978 85.2913 126.4 85.4898L123.013 85.4893C121.751 85.4892 120.523 85.655 119.327 85.9869C113.217 87.7791 108.036 93.3233 103.783 102.62C99.8626 111.186 97.901 119.818 97.8984 128.517C97.897 132.967 98.6597 136.32 100.186 138.578C101.979 141.102 105.564 142.596 110.943 143.062C113.267 143.062 115.591 142.797 117.916 142.266C122.166 141.337 127.18 138.98 132.959 135.196C136.745 132.739 139.401 131.511 140.929 131.511C141.858 131.511 142.788 131.81 143.718 132.408C145.776 133.736 146.804 135.596 146.804 137.987C146.803 138.717 146.637 139.514 146.305 140.377C144.577 144.295 139.728 148.146 131.758 151.93C123.124 155.98 115.155 158.004 107.85 158.003C91.3817 157.934 83.0841 147.308 82.9577 126.125Z" fill="white"/>
</svg>
