<svg width="350" height="295" viewBox="0 0 350 295" fill="none" xmlns="http://www.w3.org/2000/svg">
<path d="M139.655 139.915C139.655 139.915 141.337 129.418 144.701 108.424C141.98 108.309 139.059 108.223 135.939 108.167C135.142 108.153 134.346 108.073 133.552 107.926C129.649 107.059 127.735 104.501 127.811 100.252C127.832 99.0564 128.151 97.9662 128.766 96.981C130.335 94.6844 132.812 93.5663 136.198 93.6268C136.265 93.628 136.563 93.6333 137.095 93.6428C140.745 93.7744 144.031 93.8663 146.953 93.9185L151.884 63.2224C152.182 61.4344 152.507 59.9459 152.861 58.7567C154.141 53.9975 156.64 51.6512 160.359 51.7176C161.222 51.733 162.05 51.8474 162.843 52.0608C165.684 52.9086 167.061 55.7559 166.974 60.6028C166.938 62.661 165.376 73.8908 162.288 94.292L173.144 94.4859C174.737 94.5144 176.16 94.8386 177.41 95.4587C179.912 96.6989 181.137 98.7797 181.085 101.701C181.075 102.232 180.998 102.829 180.853 103.49C179.856 107.258 177.133 109.102 172.685 109.023L160.037 108.797C154.093 147.81 151.072 170.039 150.975 175.484C150.919 178.604 151.498 181.537 152.711 184.282C154.566 188.234 157.021 190.237 160.076 190.291C163.137 189.947 166.154 188.374 169.126 185.571C176.289 178.725 182.395 165.95 187.444 147.244C185.264 146.607 183.254 145.741 181.414 144.645C174.578 140.605 171.236 134.368 171.387 125.936C171.438 123.081 172.216 120.405 173.722 117.908C176.733 112.914 181.393 110.474 187.7 110.586C191.02 110.646 194.092 111.597 196.915 113.441C201.643 116.448 203.96 120.574 203.867 125.819C203.829 127.943 203.614 130.663 203.223 133.977C204.964 133.144 207.381 131.693 210.474 129.623C214.103 127.23 216.747 126.049 218.407 126.079C220.399 126.114 222.249 126.678 223.956 127.772C225.859 129.068 226.8 130.313 226.778 131.508C226.768 132.106 226.55 133.164 226.124 134.684C222.396 146.307 220.457 156.368 220.305 164.867C220.263 167.19 220.354 169.55 220.577 171.945C221.505 183.186 224.658 188.854 230.036 188.95C232.097 188.854 235.476 187.454 240.174 184.748C244.272 182.098 247.318 180.791 249.31 180.827C250.239 180.843 251.196 181.159 252.182 181.774C253.952 183.068 254.82 184.644 254.787 186.503C254.523 190.152 251.866 193.89 246.816 197.718C240.83 201.928 234.484 203.974 227.778 203.854C227.047 203.841 226.318 203.795 225.588 203.715C218.1 202.784 212.567 198.369 208.988 190.467C206.816 185.647 205.82 178.223 205.999 168.198C206.144 160.097 206.976 152.541 208.496 145.528C206.218 146.616 203.647 147.4 200.783 147.881C199.267 154.628 197.529 160.873 195.566 166.617C186.672 192.36 173.958 205.084 157.426 204.789C150.787 204.604 145.426 201.719 141.341 196.133C137.195 190.281 135.198 183.072 135.351 174.507C135.483 167.137 136.918 155.607 139.655 139.915ZM183.425 126.848C183.425 130.568 185.701 133.265 190.254 134.94C190.992 130.836 191.371 128.186 191.392 126.991C191.4 126.592 191.341 126.16 191.216 125.693C190.784 123.892 189.571 122.973 187.58 122.938C187.248 122.932 186.848 122.991 186.381 123.116C184.446 123.612 183.461 124.857 183.425 126.848Z" fill="white"/>
<path d="M80.5083 173.827C80.5087 171.569 80.642 169.178 80.9082 166.655C82.3049 155.3 85.8929 145.207 91.672 136.376C98.7796 125.553 107.281 120.143 117.175 120.144C118.503 120.145 119.931 120.245 121.458 120.444C128.497 121.442 132.149 123.999 132.414 128.116C132.347 131.304 129.524 132.997 123.946 133.195L120.559 133.194C119.298 133.194 118.069 133.36 116.874 133.691C110.764 135.483 105.583 141.027 101.331 150.323C97.4117 158.889 95.451 167.521 95.4492 176.22C95.4483 180.669 96.2113 184.023 97.7382 186.281C99.5307 188.805 103.116 190.3 108.495 190.766C110.819 190.766 113.144 190.501 115.468 189.97C119.718 189.041 124.732 186.685 130.51 182.901C134.296 180.445 136.953 179.217 138.48 179.217C139.41 179.217 140.339 179.516 141.269 180.114C143.327 181.443 144.356 183.302 144.356 185.693C144.355 186.423 144.189 187.22 143.857 188.083C142.13 192.001 137.281 195.852 129.312 199.635C120.678 203.684 112.709 205.708 105.404 205.707C88.9356 205.637 80.6369 195.01 80.5083 173.827Z" fill="white"/>
</svg>
