<svg width="361" height="264" viewBox="0 0 361 264" fill="none" xmlns="http://www.w3.org/2000/svg">
<circle cx="165" cy="132" r="132" fill="#F6B0BB"/>
<path d="M143.596 124.805C143.596 124.805 145.376 114.301 148.937 93.2928C146.217 93.1945 143.296 93.1271 140.175 93.0905C139.378 93.0812 138.583 93.0055 137.79 92.8634C133.894 92.0209 132.004 89.4754 132.119 85.227C132.152 84.0321 132.481 82.9403 133.105 81.9516C134.696 79.6461 137.184 78.5132 140.571 78.5529C140.637 78.5537 140.936 78.5572 141.467 78.5634C145.117 78.6726 148.403 78.7443 151.325 78.7785L156.545 48.062C156.86 46.2728 157.199 44.7827 157.564 43.5917C158.889 38.8262 161.411 36.4653 165.13 36.5089C165.993 36.519 166.82 36.6283 167.611 36.8367C170.445 37.6668 171.796 40.5047 171.664 45.3506C171.608 47.4084 169.94 58.6442 166.661 79.0578L177.518 79.185C179.112 79.2037 180.531 79.5191 181.776 80.1313C184.267 81.3558 185.473 83.4284 185.393 86.3492C185.379 86.8802 185.296 87.4769 185.145 88.1391C184.113 91.912 181.372 93.7724 176.923 93.7202L164.273 93.572C157.963 132.609 154.734 154.85 154.586 160.293C154.501 163.413 155.052 166.341 156.24 169.078C158.059 173.017 160.495 175.004 163.55 175.04C166.615 174.677 169.648 173.086 172.647 170.266C179.875 163.378 186.102 150.569 191.328 131.838C189.153 131.215 187.151 130.362 185.32 129.278C178.521 125.28 175.237 119.066 175.466 110.636C175.544 107.781 176.347 105.102 177.877 102.596C180.936 97.5854 185.619 95.117 191.928 95.1909C195.248 95.2298 198.311 96.1621 201.117 97.9879C205.819 100.965 208.098 105.075 207.955 110.319C207.898 112.444 207.657 115.163 207.235 118.478C208.985 117.636 211.416 116.17 214.528 114.082C218.181 111.668 220.837 110.47 222.497 110.49C224.489 110.513 226.334 111.066 228.032 112.148C229.923 113.432 230.852 114.671 230.82 115.866C230.804 116.464 230.576 117.523 230.136 119.046C226.298 130.687 224.264 140.757 224.033 149.254C223.969 151.577 224.038 153.935 224.238 156.328C225.062 167.56 228.163 173.207 233.541 173.27C235.603 173.161 238.996 171.74 243.72 169.007C247.845 166.333 250.903 165.007 252.895 165.031C253.825 165.041 254.78 165.351 255.76 165.961C257.518 167.243 258.372 168.813 258.321 170.672C258.023 174.321 255.33 178.074 250.243 181.932C244.216 186.178 237.849 188.261 231.143 188.183C230.412 188.174 229.683 188.132 228.954 188.057C221.472 187.173 215.979 182.792 212.474 174.916C210.346 170.11 209.419 162.695 209.692 152.671C209.912 144.573 210.815 137.014 212.402 129.993C210.113 131.095 207.534 131.895 204.664 132.393C203.086 139.147 201.288 145.401 199.271 151.155C190.134 176.945 177.298 189.743 160.764 189.549C154.125 189.405 148.789 186.554 144.756 180.995C140.664 175.17 138.734 167.976 138.967 159.413C139.168 152.044 140.711 140.508 143.596 124.805ZM187.499 111.474C187.464 115.192 189.716 117.875 194.254 119.522C195.03 115.414 195.435 112.762 195.467 111.567C195.478 111.169 195.423 110.737 195.303 110.271C194.887 108.473 193.683 107.562 191.691 107.539C191.359 107.535 190.959 107.597 190.49 107.724C188.55 108.233 187.553 109.483 187.499 111.474Z" fill="white"/>
<path d="M82.9577 158.125C82.9584 155.867 83.0919 153.476 83.3583 150.953C84.7563 139.598 88.3453 129.504 94.1253 120.673C101.234 109.85 109.736 104.439 119.63 104.44C120.958 104.44 122.386 104.54 123.913 104.739C130.952 105.736 134.604 108.294 134.868 112.411C134.801 115.598 131.978 117.291 126.4 117.49L123.013 117.489C121.751 117.489 120.523 117.655 119.327 117.987C113.217 119.779 108.036 125.323 103.783 134.62C99.8626 143.186 97.901 151.818 97.8984 160.517C97.897 164.967 98.6597 168.32 100.186 170.578C101.979 173.102 105.564 174.596 110.943 175.062C113.267 175.062 115.591 174.797 117.916 174.266C122.166 173.337 127.18 170.98 132.959 167.196C136.745 164.739 139.401 163.511 140.929 163.511C141.858 163.511 142.788 163.81 143.718 164.408C145.776 165.736 146.804 167.596 146.804 169.987C146.804 170.717 146.637 171.514 146.305 172.377C144.577 176.295 139.728 180.146 131.758 183.93C123.124 187.98 115.155 190.004 107.85 190.003C91.3817 189.934 83.0841 179.308 82.9577 158.125Z" fill="white"/>
</svg>
